# xmcd
#
# Track frame offsets: 
#        150
#        13488
#        31686
#        42675
#        47670
#        53151
#        62061
#        68946
#        76182
#        86928
#        88845
#        96405
#        118950
#        143547
#        154023
#        158397
#        169332
#        183777
#        197466
#        198195
#        215880
#        229866
#        245985
#        250683
#        267369
#        270771
#
# Disc length: 4073 seconds
#
# Revision: 0
# Processed by: cddbd v1.5.2PL0 Copyright (c) Steve Scherf et al.
# Submitted via: ExactAudioCopy v0.95b3
#
DISCID=700fe71a
DTITLE=The Beatles  - The Days In Their Life - Vol.14  FLAC
DYEAR=1900
DGENRE=
TTITLE0=Narrative
TTITLE1=You Never Give Me Your Money
TTITLE2=Sun King
TTITLE3=Mustard
TTITLE4=Polythene Pam
TTITLE5=She Came In Through The Bathroom Window
TTITLE6=Golden Slumbers
TTITLE7=Carry That Weight
TTITLE8=The End
TTITLE9=Her Majesty
TTITLE10=Narrative
TTITLE11=Cold Turkey (Plastic Ono Band)
TTITLE12=Narrative
TTITLE13=Come And Get It (Badfinger)
TTITLE14=Narrative
TTITLE15=Blue Suede Shoes (Plastic Ono Band)
TTITLE16=(Plastic Ono Band)
TTITLE17=Dizzy Miss Lizzy (Plastic Ono Band)
TTITLE18=Narrative
TTITLE19=Yer Blues (Plastic Ono Band)
TTITLE20=Cold Turkey (Plastic Ono Band)
TTITLE21=NarrativeGive Peace A Chance (Plastic Ono Band)
TTITLE22=Narrative
TTITLE23=Across The Universe (World Wildlife Version)
TTITLE24=Narrative
TTITLE25=1969 Christmas Message
EXTD=
EXTT0=
EXTT1=
EXTT2=
EXTT3=
EXTT4=
EXTT5=
EXTT6=
EXTT7=
EXTT8=
EXTT9=
EXTT10=
EXTT11=
EXTT12=
EXTT13=
EXTT14=
EXTT15=
EXTT16=
EXTT17=
EXTT18=
EXTT19=
EXTT20=
EXTT21=
EXTT22=
EXTT23=
EXTT24=
EXTT25=
PLAYORDER=
